<?xml version="1.0" encoding="UTF-8"?>
<svg id="Layer_1" data-name="Layer 1" xmlns="http://www.w3.org/2000/svg" viewBox="0 0 739.16 177.2">
  <defs>
    <style>
      .cls-1 {
        fill: #b7935c;
      }

      .cls-1, .cls-2 {
        stroke-width: 0px;
      }

      .cls-2 {
        fill: #294a3a;
      }
    </style>
  </defs>
  <g>
    <path class="cls-1" d="m8.03,164.74v-1.59l3.82-.98c.38-.09.68-.27.9-.56s.33-.62.33-1.01v-29.43h-7.61c-.35,0-.6.09-.75.26-.16.18-.28.4-.36.66l-2.13,5.85H.47v-9.69h32.65v9.69h-1.74l-2.13-5.85c-.09-.26-.2-.48-.35-.66-.15-.18-.39-.26-.71-.26h-7.74v29.43c0,.41.12.75.38,1.02s.54.45.87.54l3.82.98v1.59H8.03Z"/>
    <path class="cls-1" d="m43.77,165.32c-2.49,0-4.69-.51-6.6-1.52-1.9-1.01-3.39-2.51-4.45-4.5-1.06-1.99-1.6-4.42-1.6-7.29,0-2.4.51-4.64,1.54-6.71s2.51-3.75,4.44-5.03,4.25-1.92,6.95-1.92c2.29,0,4.22.49,5.8,1.47,1.58.98,2.78,2.24,3.6,3.77.81,1.54,1.22,3.13,1.22,4.79,0,.21,0,.5-.03.87-.02.37-.04.73-.05,1.07-.02.34-.04.6-.08.78h-16.52l.13-2.22h9.43c0-1.48-.11-2.82-.33-4.01-.22-1.19-.61-2.13-1.19-2.83-.58-.7-1.41-1.05-2.48-1.05s-1.92.29-2.58.86c-.67.57-1.19,1.33-1.56,2.28-.37.94-.63,1.99-.78,3.15-.15,1.16-.22,2.32-.22,3.48,0,1.82.21,3.53.64,5.13.42,1.61,1.22,2.9,2.4,3.89,1.18.99,2.89,1.48,5.14,1.48,1.23,0,2.31-.15,3.23-.44.93-.29,1.74-.63,2.43-1.02s1.28-.72,1.77-1.01h.6v2.04c-1.16,1.01-2.69,2-4.58,2.99-1.9.99-3.99,1.48-6.27,1.48Z"/>
    <path class="cls-1" d="m56.94,164.74v-1.56l2.62-.85c.33-.11.61-.29.83-.54.22-.26.34-.58.34-.97v-16.09c0-.46-.12-.86-.35-1.2-.23-.34-.65-.61-1.26-.81l-2.39-.79v-1.27l10.67-2.09v5.8c.54-.88,1.13-1.79,1.78-2.71.65-.93,1.43-1.71,2.35-2.34s2.03-.95,3.35-.95c1,0,1.79.08,2.35.24.56.16,1.14.34,1.73.56v7.89h-2.1l-1.09-1.98c-.17-.3-.54-.56-1.1-.79-.56-.23-1.1-.34-1.62-.34-.68,0-1.32.06-1.92.19-.61.12-1.19.36-1.75.7-.56.34-1.12.87-1.67,1.57v14.45c0,.79.39,1.3,1.17,1.51l3.09.85v1.56h-15.01Z"/>
    <path class="cls-1" d="m86.54,165.27c-1.35,0-2.54-.33-3.56-.99-1.02-.66-1.81-1.53-2.38-2.59-.56-1.07-.84-2.21-.84-3.43,0-1.62.39-3,1.17-4.12.78-1.12,1.77-2.03,2.99-2.73,1.21-.7,2.49-1.2,3.84-1.52,1.35-.32,2.61-.48,3.77-.48.21,0,.52.01.93.04s.83.06,1.25.09c.42.04.74.05.96.05l.03-3.84c.02-1.71-.19-2.83-.64-3.36-.44-.53-1.27-.79-2.48-.79-.69,0-1.42.15-2.18.45-.76.3-1.52.68-2.26,1.14-.75.46-1.45.93-2.1,1.4-.66.48-1.24.88-1.74,1.22h-.83l-1.07-5.16c.78-.39,1.68-.75,2.69-1.1s2.12-.63,3.34-.86c1.21-.23,2.48-.34,3.82-.34,1.63,0,3.25.26,4.86.77s2.94,1.38,4,2.59c1.06,1.22,1.57,2.89,1.53,5.03l-.16,13.13c0,.51.18.92.53,1.23.35.31.9.46,1.62.46.17,0,.47-.04.9-.11.42-.07.83-.15,1.21-.24h.52v1.85c-.31.25-.82.54-1.53.89s-1.49.65-2.35.91c-.86.26-1.68.4-2.48.4-1.51,0-2.77-.3-3.78-.91-1.01-.61-1.52-1.74-1.52-3.4-.85,1.31-1.76,2.27-2.73,2.88s-1.92,1.01-2.84,1.18c-.93.17-1.75.25-2.48.25Zm3.97-4c.73,0,1.46-.15,2.21-.44.74-.29,1.38-.86,1.9-1.71l.05-7.54c-1.56,0-2.92.19-4.08.56s-2.06.95-2.69,1.75c-.63.79-.95,1.83-.95,3.1,0,1.09.18,1.95.54,2.58.36.63.82,1.07,1.36,1.32.54.26,1.09.38,1.65.38Z"/>
    <path class="cls-1" d="m106.31,177.2v-1.56l2.6-.85c.4-.14.69-.34.88-.58.19-.25.29-.56.29-.93v-28.61c0-.46-.11-.84-.33-1.15-.22-.31-.64-.58-1.26-.81l-2.13-.79v-1.27l10.52-2.09v4.23c.8-1.11,1.6-1.99,2.42-2.63.81-.64,1.68-1.11,2.61-1.39.93-.28,1.95-.42,3.08-.42,2.06,0,3.81.54,5.26,1.63,1.45,1.09,2.55,2.56,3.31,4.43.76,1.87,1.14,4.01,1.14,6.41,0,2.65-.46,5.06-1.39,7.24-.93,2.18-2.25,3.92-3.99,5.21-1.73,1.3-3.83,1.95-6.29,1.95-1.46,0-2.66-.26-3.61-.78-.95-.52-1.75-1.11-2.39-1.76v10.61c0,.41.1.74.31.99.21.26.49.43.86.52l3.32.85v1.56h-15.22Zm10.73-32.5v16.07c.28.26.68.49,1.22.66.54.18,1.09.31,1.68.4.58.09,1.06.13,1.44.13,1.42,0,2.57-.42,3.45-1.27.88-.85,1.53-1.98,1.95-3.39.42-1.41.62-2.96.62-4.63,0-1.98-.2-3.71-.6-5.21-.4-1.5-1.03-2.67-1.9-3.51-.87-.84-2.02-1.26-3.46-1.26-1.28,0-2.26.18-2.93.54-.67.36-1.17.85-1.48,1.47Z"/>
    <path class="cls-1" d="m149.86,165.32c-2.49,0-4.69-.51-6.6-1.52-1.9-1.01-3.39-2.51-4.45-4.5-1.06-1.99-1.6-4.42-1.6-7.29,0-2.4.51-4.64,1.54-6.71s2.51-3.75,4.44-5.03,4.25-1.92,6.95-1.92c2.29,0,4.22.49,5.8,1.47,1.58.98,2.78,2.24,3.6,3.77.81,1.54,1.22,3.13,1.22,4.79,0,.21,0,.5-.03.87-.02.37-.04.73-.05,1.07-.02.34-.04.6-.08.78h-16.52l.13-2.22h9.43c0-1.48-.11-2.82-.33-4.01-.22-1.19-.61-2.13-1.19-2.83-.58-.7-1.41-1.05-2.48-1.05s-1.92.29-2.58.86c-.67.57-1.19,1.33-1.56,2.28-.37.94-.63,1.99-.78,3.15-.15,1.16-.22,2.32-.22,3.48,0,1.82.21,3.53.64,5.13.42,1.61,1.22,2.9,2.4,3.89,1.18.99,2.89,1.48,5.14,1.48,1.23,0,2.31-.15,3.23-.44.93-.29,1.74-.63,2.43-1.02s1.28-.72,1.77-1.01h.6v2.04c-1.16,1.01-2.69,2-4.58,2.99-1.9.99-3.99,1.48-6.27,1.48Zm-8.62-29.86l5.04-7.65c.45-.71.98-1.23,1.6-1.59.61-.35,1.3-.53,2.06-.53s1.46.18,2.08.53c.62.35,1.16.88,1.61,1.59l5.06,7.62-1.35.93-7.38-6.14-7.4,6.19-1.32-.95Z"/>
    <path class="cls-1" d="m173.86,165.27c-1.51,0-2.86-.31-4.05-.93-1.2-.62-2.13-1.6-2.82-2.94-.68-1.34-1.03-3.09-1.03-5.24v-11.49c0-.46-.13-.85-.4-1.18s-.67-.59-1.21-.78l-2.13-.79v-1.27l10.7-2.09v15.19c0,1.55.09,2.86.27,3.92.18,1.06.57,1.86,1.16,2.4s1.51.81,2.75.81c1.18,0,2.13-.16,2.87-.48.74-.32,1.35-.86,1.83-1.61v-14.11c0-.46-.13-.82-.4-1.09-.27-.26-.66-.48-1.18-.66l-2.44-.79v-1.27l10.99-2.3v20.51c0,.46.12.85.35,1.18.23.33.65.58,1.26.75l2.39.69v1.27l-10.31,2.3h-.55v-4.5c-.97,1.45-2.08,2.56-3.32,3.33-1.25.78-2.82,1.16-4.73,1.16Z"/>
    <path class="cls-1" d="m212.77,139.25l-.83,2.86h-8v16.41c0,.71.29,1.29.86,1.76.57.47,1.23.82,1.99,1.06.75.24,1.4.36,1.93.36s1.11-.06,1.66-.17c.55-.11,1.02-.23,1.4-.33h.6v1.77c-.36.21-.93.5-1.7.86-.77.36-1.68.69-2.71.98-1.04.29-2.16.44-3.35.44-1.46,0-2.76-.21-3.91-.64s-2.06-1.04-2.73-1.84c-.67-.8-1-1.77-1-2.9v-17.76h-4.05v-1.67c.9-.21,1.68-.46,2.35-.75.67-.29,1.2-.72,1.6-1.3.4-.57.62-1.37.68-2.4l.18-3.26,6.21-.98v7.49h8.83Z"/>
    <path class="cls-1" d="m213.1,164.74v-1.56l2.68-.85c.35-.11.63-.29.84-.54.22-.26.32-.58.32-.97v-16.15c0-.46-.12-.84-.35-1.15-.23-.31-.65-.58-1.26-.81l-2.13-.79v-1.27l10.7-2.09v22.26c0,.41.11.73.32.97s.5.42.84.54l2.44.85v1.56h-14.42Zm7.04-31.39c-.8,0-1.52-.19-2.17-.57-.65-.38-1.17-.89-1.55-1.54-.38-.64-.57-1.36-.57-2.16,0-1.16.42-2.16,1.25-2.98.83-.82,1.84-1.23,3.04-1.23s2.24.41,3.09,1.23c.85.82,1.27,1.81,1.27,2.98,0,.79-.2,1.51-.58,2.16-.39.64-.91,1.16-1.57,1.54-.66.38-1.39.57-2.21.57Z"/>
    <path class="cls-1" d="m250.45,158.81h.6v2.04c-1.11,1.02-2.56,2.02-4.36,3s-3.82,1.47-6.05,1.47c-2.44,0-4.5-.58-6.18-1.75s-2.95-2.7-3.8-4.62-1.29-3.99-1.29-6.23c0-1.87.29-3.66.86-5.37s1.44-3.23,2.61-4.57c1.17-1.33,2.64-2.39,4.4-3.16,1.77-.78,3.84-1.17,6.23-1.17,1.23,0,2.3.12,3.22.34.92.23,1.71.5,2.36.81.66.31,1.19.59,1.61.83l-1.07,5.24h-.88c-.81-.64-1.71-1.25-2.69-1.84-.98-.59-1.94-1.08-2.9-1.46-.95-.38-1.82-.57-2.6-.57-.4,0-.77.13-1.1.38-.34.26-.72.67-1.16,1.26-.26.35-.52.88-.77,1.59-.25.71-.46,1.55-.62,2.54-.17.99-.25,2.11-.25,3.36,0,3.26.58,5.79,1.75,7.58,1.17,1.79,3.12,2.69,5.86,2.69.93,0,1.79-.14,2.56-.42.77-.28,1.46-.61,2.08-.99s1.14-.71,1.57-.99Z"/>
    <path class="cls-1" d="m265.31,165.45c-2.65,0-4.93-.56-6.83-1.67-1.91-1.11-3.37-2.68-4.4-4.71-1.03-2.03-1.54-4.4-1.54-7.12,0-2.52.51-4.81,1.53-6.87,1.02-2.06,2.51-3.69,4.45-4.91,1.95-1.22,4.32-1.83,7.1-1.83,2.98,0,5.41.64,7.29,1.92,1.88,1.28,3.26,2.94,4.16,4.99.89,2.05,1.34,4.24,1.34,6.59,0,2.49-.51,4.76-1.52,6.83s-2.49,3.71-4.44,4.94c-1.95,1.23-4.32,1.84-7.13,1.84Zm.34-2.67c1.13,0,2.03-.33,2.73-.98.69-.65,1.22-1.51,1.58-2.57s.61-2.19.75-3.4.21-2.37.21-3.48c0-1.83-.17-3.62-.51-5.36-.34-1.74-.91-3.17-1.73-4.3-.81-1.13-1.95-1.69-3.4-1.69-1.09,0-1.98.33-2.66.98-.68.65-1.22,1.5-1.6,2.54s-.64,2.17-.78,3.37c-.14,1.21-.21,2.37-.21,3.48,0,1.24.08,2.52.23,3.85.16,1.33.43,2.57.83,3.71s.96,2.06,1.7,2.78c.74.71,1.68,1.07,2.84,1.07Z"/>
    <path class="cls-1" d="m281.43,163.76v-7.54h2.1l.99,2.94c.14.42.41.79.82,1.1.41.31.77.55,1.1.73.59.32,1.45.66,2.57,1.02,1.12.36,2.15.54,3.06.54.73,0,1.37-.12,1.94-.36.56-.24,1.01-.64,1.34-1.19s.49-1.31.49-2.26c0-1.2-.5-2.04-1.51-2.53s-2.07-.89-3.19-1.2c-.87-.25-1.61-.47-2.23-.66-.62-.19-1.26-.4-1.92-.61-1.63-.51-2.9-1.38-3.82-2.61-.92-1.23-1.38-2.8-1.38-4.72,0-1.59.49-2.99,1.46-4.21.97-1.22,2.28-2.17,3.93-2.86,1.65-.69,3.49-1.03,5.52-1.03,1.44,0,2.69.07,3.77.21,1.07.14,2.42.41,4.05.82l.42,7.54h-2.21l-1.14-2.86c-.14-.37-.36-.7-.67-.99s-.65-.53-1.01-.73c-.59-.3-1.29-.56-2.1-.79-.81-.23-1.62-.34-2.42-.34-.62,0-1.32.26-2.1.77-.78.51-1.17,1.39-1.17,2.62s.39,2.18,1.18,2.67,1.63.89,2.53,1.19c.74.23,1.45.46,2.12.69.67.23,1.22.42,1.67.56,1.89.6,3.44,1.42,4.66,2.46s1.83,2.56,1.83,4.55-.55,3.72-1.66,5.03c-1.11,1.31-2.54,2.27-4.31,2.89-1.77.62-3.64.93-5.64.93-2.1,0-3.83-.2-5.22-.61-1.38-.41-2.67-.78-3.84-1.14Z"/>
    <path class="cls-1" d="m330.6,165.32c-2.49,0-4.69-.51-6.6-1.52-1.9-1.01-3.39-2.51-4.45-4.5-1.06-1.99-1.6-4.42-1.6-7.29,0-2.4.51-4.64,1.54-6.71s2.51-3.75,4.44-5.03,4.25-1.92,6.95-1.92c2.29,0,4.22.49,5.8,1.47,1.58.98,2.78,2.24,3.6,3.77.81,1.54,1.22,3.13,1.22,4.79,0,.21,0,.5-.03.87-.02.37-.04.73-.05,1.07-.02.34-.04.6-.08.78h-16.52l.13-2.22h9.43c0-1.48-.11-2.82-.33-4.01-.22-1.19-.61-2.13-1.19-2.83-.58-.7-1.41-1.05-2.48-1.05s-1.92.29-2.58.86c-.67.57-1.19,1.33-1.56,2.28-.37.94-.63,1.99-.78,3.15-.15,1.16-.22,2.32-.22,3.48,0,1.82.21,3.53.64,5.13.42,1.61,1.22,2.9,2.4,3.89,1.18.99,2.89,1.48,5.14,1.48,1.23,0,2.31-.15,3.23-.44.93-.29,1.74-.63,2.43-1.02s1.28-.72,1.77-1.01h.6v2.04c-1.16,1.01-2.69,2-4.58,2.99-1.9.99-3.99,1.48-6.27,1.48Z"/>
    <path class="cls-1" d="m370.52,165.45c-1.61,0-3.33-.15-5.16-.44-1.83-.29-3.74-.93-5.73-1.92v-32.03c0-.46-.11-.85-.34-1.16-.23-.32-.65-.58-1.27-.79l-2.39-.79v-1.27l10.96-2.3v18.05c.93-1.38,1.9-2.38,2.9-3,1-.63,1.94-1.02,2.83-1.19s1.62-.25,2.2-.25c2.04,0,3.79.54,5.23,1.61,1.45,1.08,2.56,2.56,3.34,4.45s1.17,4.06,1.17,6.51c0,2.7-.55,5.15-1.65,7.35s-2.67,3.94-4.71,5.24c-2.04,1.3-4.5,1.95-7.38,1.95Zm.16-2.7c1.49,0,2.69-.47,3.61-1.4s1.59-2.17,2.03-3.69c.43-1.53.65-3.15.65-4.88,0-2.03-.2-3.8-.61-5.31-.41-1.51-1.05-2.68-1.92-3.52-.87-.84-2.02-1.26-3.44-1.26-.64,0-1.4.09-2.27.26-.87.18-1.58.75-2.12,1.72v16.04c.24.3.59.61,1.04.93.45.32.95.58,1.49.79.55.21,1.06.32,1.54.32Z"/>
    <path class="cls-1" d="m399.4,165.32c-2.49,0-4.69-.51-6.6-1.52-1.9-1.01-3.39-2.51-4.45-4.5-1.06-1.99-1.6-4.42-1.6-7.29,0-2.4.51-4.64,1.54-6.71s2.51-3.75,4.44-5.03,4.25-1.92,6.95-1.92c2.29,0,4.22.49,5.8,1.47,1.58.98,2.78,2.24,3.6,3.77.81,1.54,1.22,3.13,1.22,4.79,0,.21,0,.5-.03.87-.02.37-.04.73-.05,1.07-.02.34-.04.6-.08.78h-16.52l.13-2.22h9.43c0-1.48-.11-2.82-.33-4.01-.22-1.19-.61-2.13-1.19-2.83-.58-.7-1.41-1.05-2.48-1.05s-1.92.29-2.58.86c-.67.57-1.19,1.33-1.56,2.28-.37.94-.63,1.99-.78,3.15-.15,1.16-.22,2.32-.22,3.48,0,1.82.21,3.53.64,5.13.42,1.61,1.22,2.9,2.4,3.89,1.18.99,2.89,1.48,5.14,1.48,1.23,0,2.31-.15,3.23-.44.93-.29,1.74-.63,2.43-1.02s1.28-.72,1.77-1.01h.6v2.04c-1.16,1.01-2.69,2-4.58,2.99-1.9.99-3.99,1.48-6.27,1.48Z"/>
    <path class="cls-1" d="m428.51,164.74v-1.51l2.31-.85c.35-.12.62-.31.82-.56.2-.25.3-.56.3-.95v-11.01c0-1.57-.1-2.89-.29-3.96-.19-1.07-.58-1.87-1.16-2.41-.58-.54-1.47-.81-2.66-.81-.78,0-1.59.11-2.43.32s-1.54.82-2.09,1.83v15.99c0,.41.11.72.32.95.22.23.5.41.84.56l1.97.85v1.56h-13.79v-1.51l2.57-.85c.35-.11.62-.3.82-.57.2-.27.3-.6.3-.99v-16.15c0-.46-.12-.84-.35-1.14-.23-.3-.64-.56-1.21-.77l-2.13-.79v-1.27l10.52-2.14v4.29c1.35-1.92,2.69-3.15,4.01-3.69,1.32-.54,2.62-.81,3.88-.81,1.11,0,2.15.17,3.13.52.98.34,1.83.9,2.56,1.65.73.76,1.26,1.77,1.61,3.04h.52v17.31c0,.41.11.71.34.93.22.21.5.39.83.53l1.97.85v1.56h-13.53Zm15.58,0v-1.51l2.31-.85c.35-.12.62-.32.82-.58s.3-.59.3-.98v-10.96c0-1.57-.1-2.89-.29-3.96-.19-1.07-.57-1.87-1.14-2.41s-1.45-.81-2.62-.81c-.76,0-1.62.13-2.58.4-.96.26-1.7,1.02-2.22,2.28l-.73-1.48c1.14-1.75,2.22-3.01,3.23-3.79,1.01-.78,1.98-1.26,2.9-1.46.92-.19,1.8-.29,2.65-.29,1.46,0,2.77.31,3.95.93s2.11,1.6,2.79,2.94c.68,1.34,1.03,3.09,1.03,5.24v13.42c0,.39.1.69.31.91.21.22.49.4.86.54l2.23.85v1.56h-13.79Z"/>
    <path class="cls-1" d="m460.51,152.98v-4.84h14.36v4.84h-14.36Z"/>
    <path class="cls-1" d="m491.21,165.32c-2.49,0-4.69-.51-6.6-1.52-1.9-1.01-3.39-2.51-4.45-4.5-1.06-1.99-1.6-4.42-1.6-7.29,0-2.4.51-4.64,1.54-6.71s2.51-3.75,4.44-5.03,4.25-1.92,6.95-1.92c2.29,0,4.22.49,5.8,1.47,1.58.98,2.78,2.24,3.6,3.77.81,1.54,1.22,3.13,1.22,4.79,0,.21,0,.5-.03.87-.02.37-.04.73-.05,1.07-.02.34-.04.6-.08.78h-16.52l.13-2.22h9.43c0-1.48-.11-2.82-.33-4.01-.22-1.19-.61-2.13-1.19-2.83-.58-.7-1.41-1.05-2.48-1.05s-1.92.29-2.58.86c-.67.57-1.19,1.33-1.56,2.28-.37.94-.63,1.99-.78,3.15-.15,1.16-.22,2.32-.22,3.48,0,1.82.21,3.53.64,5.13.42,1.61,1.22,2.9,2.4,3.89,1.18.99,2.89,1.48,5.14,1.48,1.23,0,2.31-.15,3.23-.44.93-.29,1.74-.63,2.43-1.02s1.28-.72,1.77-1.01h.6v2.04c-1.16,1.01-2.69,2-4.58,2.99-1.9.99-3.99,1.48-6.27,1.48Z"/>
    <path class="cls-1" d="m505.1,163.76v-7.54h2.1l.99,2.94c.14.42.41.79.82,1.1.41.31.77.55,1.1.73.59.32,1.45.66,2.57,1.02,1.12.36,2.15.54,3.06.54.73,0,1.37-.12,1.94-.36.56-.24,1.01-.64,1.34-1.19s.49-1.31.49-2.26c0-1.2-.5-2.04-1.51-2.53s-2.07-.89-3.19-1.2c-.87-.25-1.61-.47-2.23-.66-.62-.19-1.26-.4-1.92-.61-1.63-.51-2.9-1.38-3.82-2.61-.92-1.23-1.38-2.8-1.38-4.72,0-1.59.49-2.99,1.46-4.21.97-1.22,2.28-2.17,3.93-2.86,1.65-.69,3.49-1.03,5.52-1.03,1.44,0,2.69.07,3.77.21,1.07.14,2.42.41,4.05.82l.42,7.54h-2.21l-1.14-2.86c-.14-.37-.36-.7-.67-.99s-.65-.53-1.01-.73c-.59-.3-1.29-.56-2.1-.79-.81-.23-1.62-.34-2.42-.34-.62,0-1.32.26-2.1.77-.78.51-1.17,1.39-1.17,2.62s.39,2.18,1.18,2.67,1.63.89,2.53,1.19c.74.23,1.45.46,2.12.69.67.23,1.22.42,1.67.56,1.89.6,3.44,1.42,4.66,2.46s1.83,2.56,1.83,4.55-.55,3.72-1.66,5.03c-1.11,1.31-2.54,2.27-4.31,2.89-1.77.62-3.64.93-5.64.93-2.1,0-3.83-.2-5.22-.61-1.38-.41-2.67-.78-3.84-1.14Z"/>
    <path class="cls-1" d="m546.87,139.25l-.83,2.86h-8v16.41c0,.71.29,1.29.86,1.76.57.47,1.23.82,1.99,1.06.75.24,1.4.36,1.93.36s1.11-.06,1.66-.17c.55-.11,1.02-.23,1.4-.33h.6v1.77c-.36.21-.93.5-1.7.86-.77.36-1.68.69-2.71.98-1.04.29-2.16.44-3.35.44-1.46,0-2.76-.21-3.91-.64s-2.06-1.04-2.73-1.84c-.67-.8-1-1.77-1-2.9v-17.76h-4.05v-1.67c.9-.21,1.68-.46,2.35-.75.67-.29,1.2-.72,1.6-1.3.4-.57.62-1.37.68-2.4l.18-3.26,6.21-.98v7.49h8.83Z"/>
    <path class="cls-1" d="m554.14,165.27c-1.35,0-2.54-.33-3.56-.99-1.02-.66-1.81-1.53-2.38-2.59-.56-1.07-.84-2.21-.84-3.43,0-1.62.39-3,1.17-4.12.78-1.12,1.77-2.03,2.99-2.73,1.21-.7,2.49-1.2,3.84-1.52,1.35-.32,2.61-.48,3.77-.48.21,0,.52.01.93.04s.83.06,1.25.09c.42.04.74.05.96.05l.03-3.84c.02-1.71-.19-2.83-.64-3.36-.44-.53-1.27-.79-2.48-.79-.69,0-1.42.15-2.18.45-.76.3-1.52.68-2.26,1.14-.75.46-1.45.93-2.1,1.4-.66.48-1.24.88-1.74,1.22h-.83l-1.07-5.16c.78-.39,1.68-.75,2.69-1.1s2.12-.63,3.34-.86c1.21-.23,2.48-.34,3.82-.34,1.63,0,3.25.26,4.86.77s2.94,1.38,4,2.59c1.06,1.22,1.57,2.89,1.53,5.03l-.16,13.13c0,.51.18.92.53,1.23.35.31.9.46,1.62.46.17,0,.47-.04.9-.11.42-.07.83-.15,1.21-.24h.52v1.85c-.31.25-.82.54-1.53.89s-1.49.65-2.35.91c-.86.26-1.68.4-2.48.4-1.51,0-2.77-.3-3.78-.91-1.01-.61-1.52-1.74-1.52-3.4-.85,1.31-1.76,2.27-2.73,2.88s-1.92,1.01-2.84,1.18c-.93.17-1.75.25-2.48.25Zm3.97-4c.73,0,1.46-.15,2.21-.44.74-.29,1.38-.86,1.9-1.71l.05-7.54c-1.56,0-2.92.19-4.08.56s-2.06.95-2.69,1.75c-.63.79-.95,1.83-.95,3.1,0,1.09.18,1.95.54,2.58.36.63.82,1.07,1.36,1.32.54.26,1.09.38,1.65.38Z"/>
    <path class="cls-1" d="m574.21,164.74v-1.56l2.62-.85c.33-.11.61-.29.83-.54.22-.26.34-.58.34-.97v-16.09c0-.46-.12-.86-.35-1.2-.23-.34-.65-.61-1.26-.81l-2.39-.79v-1.27l10.67-2.09v5.8c.54-.88,1.13-1.79,1.78-2.71.65-.93,1.43-1.71,2.35-2.34s2.03-.95,3.35-.95c1,0,1.79.08,2.35.24.56.16,1.14.34,1.73.56v7.89h-2.1l-1.09-1.98c-.17-.3-.54-.56-1.1-.79-.56-.23-1.1-.34-1.62-.34-.68,0-1.32.06-1.92.19-.61.12-1.19.36-1.75.7-.56.34-1.12.87-1.67,1.57v14.45c0,.79.39,1.3,1.17,1.51l3.09.85v1.56h-15.01Z"/>
  </g>
  <path class="cls-1" d="m605.05,134.59c-1.12,0-2.17-.21-3.15-.63-.98-.42-1.85-1.01-2.6-1.76s-1.33-1.61-1.76-2.6-.63-2.03-.63-3.15.21-2.15.63-3.12c.42-.98,1.01-1.84,1.76-2.58s1.62-1.33,2.6-1.75c.98-.42,2.03-.63,3.15-.63s2.16.21,3.14.63c.98.42,1.84,1.01,2.59,1.75s1.33,1.61,1.75,2.58c.42.98.63,2.02.63,3.12s-.21,2.17-.63,3.15-1.01,1.85-1.75,2.6-1.61,1.33-2.59,1.76c-.98.42-2.03.63-3.14.63Zm.01-.88c1,0,1.93-.19,2.79-.56s1.62-.89,2.26-1.55c.65-.66,1.15-1.43,1.52-2.31s.55-1.82.55-2.83-.18-1.94-.55-2.81c-.36-.87-.87-1.63-1.52-2.29-.65-.66-1.4-1.18-2.26-1.55-.86-.37-1.79-.56-2.79-.56s-1.95.19-2.81.56c-.86.37-1.62.89-2.27,1.55-.65.66-1.16,1.42-1.52,2.29-.36.87-.54,1.81-.54,2.81s.18,1.96.54,2.83c.36.88.87,1.65,1.52,2.31.65.66,1.41,1.18,2.27,1.55s1.8.56,2.81.56Zm-3.88-3.04v-.54l1.05-.34c.12-.03.19-.11.19-.22v-6.39c0-.1-.06-.16-.19-.2l-1.05-.35v-.54h3.88c.95,0,1.67.11,2.15.33.49.22.82.5.98.84.17.34.25.68.25,1.04,0,.44-.1.82-.29,1.14-.2.32-.44.58-.74.78-.3.2-.61.34-.93.43l2.26,2.79c.03.05.09.12.17.2s.16.13.24.15l1.05.31v.54h-1.68c-.3,0-.51-.02-.65-.06-.14-.04-.25-.12-.35-.23-.1-.11-.23-.28-.39-.49l-2.15-2.79-1.06-.23v2.71c0,.06.02.11.06.14.04.03.08.06.13.07l1.05.34v.54h-3.97Zm2.73-7.75v3.22c.14.01.32.03.53.04.21.01.37.02.49.02.65,0,1.13-.17,1.43-.5.3-.34.45-.71.45-1.13,0-.56-.17-.98-.5-1.24-.34-.26-.84-.4-1.52-.4h-.89Z"/>
  <g>
    <path class="cls-1" d="m41.06,26.62H0V0h28.88l12.18,26.62Zm-21.01,59.3H0v-46.31h20.05v46.31Zm67.25-46.31l-19.95,46.31h-23.98l-19.95-46.31h23.5l8.73,16.28,8.15-16.28h23.5Zm23.41-13h-41.15L81.83,0h28.88v26.62Zm0,59.3h-20.15v-46.31h20.15v46.31Z"/>
    <path class="cls-1" d="m210.76,26.62h-91.61v-13.63c0-8.08,6.91-13,14.29-13h62.93c7.87,0,14.39,5.05,14.39,13v13.63Zm0,46.05c0,6.44-4.22,10.73-12.66,13-.86.13-1.44.25-1.73.25h-62.93c-.67,0-1.92-.25-3.74-.88-7-2.4-10.55-6.44-10.55-12.37v-33.06h20.05v19.68c0,3.28,1.25,5.05,3.65,6.18l1.34.63h40.48c2.49,0,6.04-3.66,6.04-6.81v-19.68h20.05v33.06Z"/>
    <path class="cls-1" d="m260.19,26.62h-41.06V0h28.88l12.18,26.62Zm-21.01,59.3h-20.05v-46.31h20.05v46.31Zm67.25-46.31l-19.95,46.31h-23.98l-19.95-46.31h23.5l8.73,16.28,8.15-16.28h23.5Zm23.41-13h-41.15l12.28-26.62h28.88v26.62Zm0,59.3h-20.15v-46.31h20.15v46.31Z"/>
    <path class="cls-1" d="m398.73,20.06h-40.2v6.56h-20.05V0h60.25v20.06Zm1.15,65.86h-61.4v-46.31h45.18v19.94h-25.13v6.56h41.35v19.81Z"/>
    <path class="cls-1" d="m448.57,26.62h-41.06V0h28.88l12.18,26.62Zm-21.01,59.3h-20.05v-46.31h20.05v46.31Zm55.74,0h-32.42l-19.95-46.31h23.5l8.73,16.28v-16.28h20.15v46.31Zm0-59.3h-20.15V0h20.15v26.62Z"/>
    <path class="cls-1" d="m551.13,26.62h-61.49V0h61.49v26.62Zm-22.35,59.3h-20.15v-46.31h20.15v46.31Z"/>
    <path class="cls-1" d="m648.91,26.62h-91.61v-13.63c0-8.08,6.91-13,14.29-13h62.93c7.87,0,14.39,5.05,14.39,13v13.63Zm0,46.05c0,6.44-4.22,10.73-12.66,13-.86.13-1.44.25-1.73.25h-62.93c-.67,0-1.92-.25-3.74-.88-7-2.4-10.55-6.44-10.55-12.37v-33.06h20.05v19.68c0,3.28,1.25,5.05,3.65,6.18l1.34.63h40.48c2.49,0,6.04-3.66,6.04-6.81v-19.68h20.05v33.06Z"/>
    <path class="cls-1" d="m738.75,26.62h-22.06c-.19-4.42-1.63-6.56-4.22-6.56h-30.22c-2.97,0-4.7,2.15-4.99,6.56h-20.05v-13.63c0-8.08,6.91-13,14.29-13h52.86c7.87,0,14.39,5.05,14.39,13v13.63Zm0,46.05c0,6.44-4.22,10.73-12.66,13-.86.13-1.44.25-1.73.25h-67.15v-19.81h55.45c2.69,0,4.03-1.14,4.03-3.28,0-2.4-1.34-3.53-4.03-3.53h-41.15c-8.83,0-13.24-6.69-14.29-19.68h67.15c8.35,0,14.39,5.68,14.39,14.89v18.17Z"/>
  </g>
  <rect class="cls-2" y="100.65" width="739.16" height="10.21"/>
</svg>